<svg xmlns="http://www.w3.org/2000/svg" xmlns:xlink="http://www.w3.org/1999/xlink" style="margin:auto;background:rgba(241, 242, 243, 0);display:block;z-index:1;position:relative" width="659" height="492" preserveAspectRatio="xMidYMid" viewBox="0 0 659 492">
<g transform="translate(329.5,246) scale(1,1) translate(-329.5,-246)"><linearGradient id="lg-0.2212741192481451" x1="0" x2="1" y1="0" y2="0">
  <stop stop-color="var(--first-color)" offset="0"></stop>
  <stop stop-color="var(--second-color)" offset="1"></stop>
</linearGradient><path d="M 524 246 C 524 286 482 372 450 397 C 418 422 336 395 297 386 C 258 377 161 371 144 335 C 127 299 154 206 172 170 C 190 134 264 138 303 129 C 342 120 403 89 435 114 C 467 139 524 206 524 246" fill="url(#lg-0.2212741192481451)" opacity="0.41000000000000003">
  <animate attributeName="d" dur="14.285714285714286s" repeatCount="indefinite" keyTimes="0;0.3333333333333333;0.6666666666666666;1" calcmod="spline" keySplines="0.3 0.1 0.7 0.9;0.3 0.1 0.7 0.9;0.3 0.1 0.7 0.9" begin="-7.142857142857143s" values="M 524 246 C 524 286 482 372 450 397 C 418 422 336 395 297 386 C 258 377 161 371 144 335 C 127 299 154 206 172 170 C 190 134 264 138 303 129 C 342 120 403 89 435 114 C 467 139 524 206 524 246;M 578 246 C 578 296 513 396 474 427 C 435 458 338 434 289 423 C 240 412 132 397 110 352 C 88 307 118 200 140 155 C 162 110 238 69 287 58 C 336 47 407 69 446 100 C 485 131 578 196 578 246;M 536 246 C 536 284 457 346 427 369 C 397 392 332 404 295 395 C 258 386 182 359 166 325 C 150 291 160 206 176 172 C 192 138 262 122 299 114 C 336 106 409 86 438 110 C 467 134 536 208 536 246;M 524 246 C 524 286 482 372 450 397 C 418 422 336 395 297 386 C 258 377 161 371 144 335 C 127 299 154 206 172 170 C 190 134 264 138 303 129 C 342 120 403 89 435 114 C 467 139 524 206 524 246"></animate>
</path><path d="M 550 246 C 550 288 466 349 433 375 C 400 401 339 391 298 382 C 257 373 174 368 156 330 C 138 292 149 206 167 168 C 185 130 255 110 296 101 C 337 92 402 87 435 113 C 468 139 550 204 550 246" fill="url(#lg-0.2212741192481451)" opacity="0.41000000000000003">
  <animate attributeName="d" dur="14.285714285714286s" repeatCount="indefinite" keyTimes="0;0.3333333333333333;0.6666666666666666;1" calcmod="spline" keySplines="0.3 0.1 0.7 0.9;0.3 0.1 0.7 0.9;0.3 0.1 0.7 0.9" begin="-7.142857142857143s" values="M 550 246 C 550 288 466 349 433 375 C 400 401 339 391 298 382 C 257 373 174 368 156 330 C 138 292 149 206 167 168 C 185 130 255 110 296 101 C 337 92 402 87 435 113 C 468 139 550 204 550 246;M 650 246 C 650 304 518 389 473 425 C 428 461 334 488 277 475 C 220 462 82 430 57 377 C 32 324 33 168 58 115 C 83 62 221 31 278 18 C 335 5 444 9 490 45 C 536 81 650 188 650 246;M 549 246 C 549 292 501 388 465 416 C 429 444 339 408 295 398 C 251 388 173 372 153 331 C 133 290 105 189 125 148 C 145 107 246 85 290 75 C 334 65 401 83 437 112 C 473 141 549 200 549 246;M 550 246 C 550 288 466 349 433 375 C 400 401 339 391 298 382 C 257 373 174 368 156 330 C 138 292 149 206 167 168 C 185 130 255 110 296 101 C 337 92 402 87 435 113 C 468 139 550 204 550 246"></animate>
</path><path d="M 516 246 C 516 287 456 338 424 364 C 392 390 333 413 293 404 C 253 395 157 375 139 338 C 121 301 122 192 140 155 C 158 118 260 127 300 118 C 340 109 415 72 447 98 C 479 124 516 205 516 246" fill="url(#lg-0.2212741192481451)" opacity="0.41000000000000003">
  <animate attributeName="d" dur="14.285714285714286s" repeatCount="indefinite" keyTimes="0;0.3333333333333333;0.6666666666666666;1" calcmod="spline" keySplines="0.3 0.1 0.7 0.9;0.3 0.1 0.7 0.9;0.3 0.1 0.7 0.9" begin="-7.142857142857143s" values="M 516 246 C 516 287 456 338 424 364 C 392 390 333 413 293 404 C 253 395 157 375 139 338 C 121 301 122 192 140 155 C 158 118 260 127 300 118 C 340 109 415 72 447 98 C 479 124 516 205 516 246;M 640 246 C 640 308 541 411 492 450 C 443 489 345 458 284 444 C 223 430 55 447 28 391 C 1 335 16 164 43 108 C 70 52 221 52 282 38 C 343 24 423 28 472 67 C 521 106 640 184 640 246;M 613 246 C 613 308 530 398 482 437 C 434 476 340 475 280 461 C 220 447 105 423 78 367 C 51 311 18 165 45 109 C 72 53 216 26 276 12 C 336 -2 429 22 477 61 C 525 100 613 184 613 246;M 516 246 C 516 287 456 338 424 364 C 392 390 333 413 293 404 C 253 395 157 375 139 338 C 121 301 122 192 140 155 C 158 118 260 127 300 118 C 340 109 415 72 447 98 C 479 124 516 205 516 246"></animate>
</path><path d="M 559 246 C 559 290 493 381 459 408 C 425 435 337 411 294 401 C 251 391 159 377 140 337 C 121 297 131 200 150 160 C 169 120 251 102 294 92 C 337 82 406 81 440 108 C 474 135 559 202 559 246" fill="url(#lg-0.2212741192481451)" opacity="0.41000000000000003">
  <animate attributeName="d" dur="14.285714285714286s" repeatCount="indefinite" keyTimes="0;0.3333333333333333;0.6666666666666666;1" calcmod="spline" keySplines="0.3 0.1 0.7 0.9;0.3 0.1 0.7 0.9;0.3 0.1 0.7 0.9" begin="-7.142857142857143s" values="M 559 246 C 559 290 493 381 459 408 C 425 435 337 411 294 401 C 251 391 159 377 140 337 C 121 297 131 200 150 160 C 169 120 251 102 294 92 C 337 82 406 81 440 108 C 474 135 559 202 559 246;M 525 246 C 525 287 479 368 447 393 C 415 418 335 408 295 399 C 255 390 195 356 177 319 C 159 282 126 193 144 156 C 162 119 260 124 300 115 C 340 106 395 99 427 124 C 459 149 525 205 525 246;M 594 246 C 594 298 503 379 462 412 C 421 445 346 410 295 398 C 244 386 147 392 124 345 C 101 298 75 182 98 135 C 121 88 236 69 287 58 C 338 47 427 40 468 72 C 509 104 594 194 594 246;M 559 246 C 559 290 493 381 459 408 C 425 435 337 411 294 401 C 251 391 159 377 140 337 C 121 297 131 200 150 160 C 169 120 251 102 294 92 C 337 82 406 81 440 108 C 474 135 559 202 559 246"></animate>
</path></g>
</svg>