<svg xmlns="http://www.w3.org/2000/svg" xmlns:xlink="http://www.w3.org/1999/xlink" style="margin:auto;background:rgba(241, 242, 243, 0);display:block;z-index:1;position:relative" width="1107" height="691" preserveAspectRatio="xMidYMid" viewBox="0 0 1107 691">
<g transform="translate(553.5,345.5) scale(1,1) translate(-553.5,-345.5)"><linearGradient id="lg-0.05398456535918772" x1="0" x2="1" y1="0" y2="0">
  <stop stop-color="var(--first-color)" offset="0"></stop>
  <stop stop-color="var(--second-color)" offset="1"></stop>
</linearGradient><path d="M 946 346 C 946 470 678 551 554 551 C 430 551 215 470 215 346 C 215 222 430 142 554 142 C 678 142 946 222 946 346" fill="url(#lg-0.05398456535918772)" opacity="0.41000000000000003">
  <animate attributeName="d" dur="var(--tiempoAnim)" repeatCount="indefinite" keyTimes="0;0.3333333333333333;0.6666666666666666;1" calcmod="spline" keySplines="0.3 0.1 0.7 0.9;0.3 0.1 0.7 0.9;0.3 0.1 0.7 0.9" begin="-4s" values="M 946 346 C 946 470 678 551 554 551 C 430 551 215 470 215 346 C 215 222 430 142 554 142 C 678 142 946 222 946 346;M 857 346 C 857 463 671 577 554 577 C 437 577 241 463 241 346 C 241 229 437 172 554 172 C 671 172 857 229 857 346;M 938 346 C 938 489 697 583 554 583 C 411 583 154 489 154 346 C 154 203 411 125 554 125 C 697 125 938 203 938 346;M 946 346 C 946 470 678 551 554 551 C 430 551 215 470 215 346 C 215 222 430 142 554 142 C 678 142 946 222 946 346"></animate>
</path><path d="M 957 346 C 957 487 695 621 554 621 C 413 621 178 487 178 346 C 178 205 413 98 554 98 C 695 98 957 205 957 346" fill="url(#lg-0.05398456535918772)" opacity="0.41000000000000003">
  <animate attributeName="d" dur="var(--tiempoAnim)" repeatCount="indefinite" keyTimes="0;0.3333333333333333;0.6666666666666666;1" calcmod="spline" keySplines="0.3 0.1 0.7 0.9;0.3 0.1 0.7 0.9;0.3 0.1 0.7 0.9" begin="-4s" values="M 957 346 C 957 487 695 621 554 621 C 413 621 178 487 178 346 C 178 205 413 98 554 98 C 695 98 957 205 957 346;M 984 346 C 984 490 698 642 554 642 C 410 642 144 490 144 346 C 144 202 410 47 554 47 C 698 47 984 202 984 346;M 816 346 C 816 450 658 531 554 531 C 450 531 270 450 270 346 C 270 242 450 141 554 141 C 658 141 816 242 816 346;M 957 346 C 957 487 695 621 554 621 C 413 621 178 487 178 346 C 178 205 413 98 554 98 C 695 98 957 205 957 346"></animate>
</path><path d="M 883 346 C 883 452 660 501 554 501 C 448 501 284 452 284 346 C 284 240 448 160 554 160 C 660 160 883 240 883 346" fill="url(#lg-0.05398456535918772)" opacity="0.41000000000000003">
  <animate attributeName="d" dur="var(--tiempoAnim)" repeatCount="indefinite" keyTimes="0;0.3333333333333333;0.6666666666666666;1" calcmod="spline" keySplines="0.3 0.1 0.7 0.9;0.3 0.1 0.7 0.9;0.3 0.1 0.7 0.9" begin="-4s" values="M 883 346 C 883 452 660 501 554 501 C 448 501 284 452 284 346 C 284 240 448 160 554 160 C 660 160 883 240 883 346;M 900 346 C 900 469 677 537 554 537 C 431 537 199 469 199 346 C 199 223 431 93 554 93 C 677 93 900 223 900 346;M 876 346 C 876 470 678 587 554 587 C 430 587 242 470 242 346 C 242 222 430 94 554 94 C 678 94 876 222 876 346;M 883 346 C 883 452 660 501 554 501 C 448 501 284 452 284 346 C 284 240 448 160 554 160 C 660 160 883 240 883 346"></animate>
</path><path d="M 823 346 C 823 440 648 488 554 488 C 460 488 282 440 282 346 C 282 252 460 150 554 150 C 648 150 823 252 823 346" fill="url(#lg-0.05398456535918772)" opacity="0.41000000000000003">
  <animate attributeName="d" dur="var(--tiempoAnim)" repeatCount="indefinite" keyTimes="0;0.3333333333333333;0.6666666666666666;1" calcmod="spline" keySplines="0.3 0.1 0.7 0.9;0.3 0.1 0.7 0.9;0.3 0.1 0.7 0.9" begin="-4s" values="M 823 346 C 823 440 648 488 554 488 C 460 488 282 440 282 346 C 282 252 460 150 554 150 C 648 150 823 252 823 346;M 847 346 C 847 450 658 526 554 526 C 450 526 238 450 238 346 C 238 242 450 133 554 133 C 658 133 847 242 847 346;M 969 346 C 969 481 689 607 554 607 C 419 607 215 481 215 346 C 215 211 419 129 554 129 C 689 129 969 211 969 346;M 823 346 C 823 440 648 488 554 488 C 460 488 282 440 282 346 C 282 252 460 150 554 150 C 648 150 823 252 823 346"></animate>
</path><path d="M 1025 346 C 1025 496 704 560 554 560 C 404 560 113 496 113 346 C 113 196 403 29 553 29 C 703 29 1025 196 1025 346" fill="url(#lg-0.05398456535918772)" opacity="0.41000000000000003">
  <animate attributeName="d" dur="var(--tiempoAnim)" repeatCount="indefinite" keyTimes="0;0.3333333333333333;0.6666666666666666;1" calcmod="spline" keySplines="0.3 0.1 0.7 0.9;0.3 0.1 0.7 0.9;0.3 0.1 0.7 0.9" begin="-4s" values="M 1025 346 C 1025 496 704 560 554 560 C 404 560 113 496 113 346 C 113 196 403 29 553 29 C 703 29 1025 196 1025 346;M 815 346 C 815 446 654 557 554 557 C 454 557 285 446 285 346 C 285 246 454 191 554 191 C 654 191 815 246 815 346;M 1042 346 C 1042 506 714 606 554 606 C 394 606 133 506 133 346 C 133 186 394 47 554 47 C 714 47 1042 186 1042 346;M 1025 346 C 1025 496 704 560 554 560 C 404 560 113 496 113 346 C 113 196 403 29 553 29 C 703 29 1025 196 1025 346"></animate>
</path></g>
</svg>