<svg xmlns="http://www.w3.org/2000/svg" xmlns:xlink="http://www.w3.org/1999/xlink" style="margin:auto;background:rgba(255, 255, 255, 0);display:block;z-index:1;position:relative" width="1395" height="1050" preserveAspectRatio="xMidYMid" viewBox="0 0 1395 1050">
<g transform="translate(697.5,525) scale(1,1) translate(-697.5,-525)"><linearGradient id="lg-0.4071668219799969" x1="0" x2="1" y1="0" y2="0">
  <stop stop-color="var(--first-color)" offset="0"></stop>
  <stop stop-color="var(--second-color)" offset="1"></stop>
</linearGradient><path d="M 1293 525 C 1293 676 1058 850 928 925 C 798 1000 597 999 467 924 C 337 849 96 676 96 525 C 96 374 277 97 407 22 C 537 -53 841 -23 971 52 C 1101 127 1293 374 1293 525" fill="url(#lg-0.4071668219799969)" opacity="0.49">
  <animate attributeName="d" dur="var(--tiempoAnim)" repeatCount="indefinite" keyTimes="0;0.3333333333333333;0.6666666666666666;1" calcmod="spline" keySplines="0.3 0.1 0.7 0.9;0.3 0.1 0.7 0.9;0.3 0.1 0.7 0.9" begin="-8.333333333333334s" values="M 1293 525 C 1293 676 1058 850 928 925 C 798 1000 597 999 467 924 C 337 849 96 676 96 525 C 96 374 277 97 407 22 C 537 -53 841 -23 971 52 C 1101 127 1293 374 1293 525;M 1311 525 C 1311 654 1050 877 938 941 C 826 1005 572 1001 460 937 C 348 873 186 654 186 525 C 186 396 344 170 456 106 C 568 42 786 114 898 178 C 1010 242 1311 396 1311 525;M 1327 525 C 1327 661 1063 885 945 953 C 827 1021 610 950 492 882 C 374 814 164 661 164 525 C 164 389 320 144 438 76 C 556 8 807 63 925 131 C 1043 199 1327 389 1327 525;M 1293 525 C 1293 676 1058 850 928 925 C 798 1000 597 999 467 924 C 337 849 96 676 96 525 C 96 374 277 97 407 22 C 537 -53 841 -23 971 52 C 1101 127 1293 374 1293 525"></animate>
</path><path d="M 1335 525 C 1335 663 1028 823 909 892 C 790 961 546 1062 427 993 C 308 924 163 663 163 525 C 163 387 376 244 495 175 C 614 106 818 41 937 110 C 1056 179 1335 387 1335 525" fill="url(#lg-0.4071668219799969)" opacity="0.49">
  <animate attributeName="d" dur="var(--tiempoAnim)" repeatCount="indefinite" keyTimes="0;0.3333333333333333;0.6666666666666666;1" calcmod="spline" keySplines="0.3 0.1 0.7 0.9;0.3 0.1 0.7 0.9;0.3 0.1 0.7 0.9" begin="-8.333333333333334s" values="M 1335 525 C 1335 663 1028 823 909 892 C 790 961 546 1062 427 993 C 308 924 163 663 163 525 C 163 387 376 244 495 175 C 614 106 818 41 937 110 C 1056 179 1335 387 1335 525;M 1207 525 C 1207 660 1052 869 935 936 C 818 1003 557 1038 440 971 C 323 904 78 660 78 525 C 78 390 336 168 453 101 C 570 34 848 -5 965 62 C 1082 129 1207 390 1207 525;M 1272 525 C 1272 653 1048 876 937 940 C 826 1004 609 934 498 870 C 387 806 168 653 168 525 C 168 397 348 176 459 112 C 570 48 797 96 908 160 C 1019 224 1272 397 1272 525;M 1335 525 C 1335 663 1028 823 909 892 C 790 961 546 1062 427 993 C 308 924 163 663 163 525 C 163 387 376 244 495 175 C 614 106 818 41 937 110 C 1056 179 1335 387 1335 525"></animate>
</path><path d="M 1218 525 C 1218 660 1061 884 944 951 C 827 1018 551 1048 434 981 C 317 914 92 660 92 525 C 92 390 346 186 463 119 C 580 52 797 83 914 150 C 1031 217 1218 390 1218 525" fill="url(#lg-0.4071668219799969)" opacity="0.49">
  <animate attributeName="d" dur="var(--tiempoAnim)" repeatCount="indefinite" keyTimes="0;0.3333333333333333;0.6666666666666666;1" calcmod="spline" keySplines="0.3 0.1 0.7 0.9;0.3 0.1 0.7 0.9;0.3 0.1 0.7 0.9" begin="-8.333333333333334s" values="M 1218 525 C 1218 660 1061 884 944 951 C 827 1018 551 1048 434 981 C 317 914 92 660 92 525 C 92 390 346 186 463 119 C 580 52 797 83 914 150 C 1031 217 1218 390 1218 525;M 1227 525 C 1227 662 1022 812 903 881 C 784 950 575 1011 456 942 C 337 873 93 662 93 525 C 93 388 352 202 471 133 C 590 64 788 93 907 162 C 1026 231 1227 388 1227 525;M 1285 525 C 1285 675 1087 899 957 974 C 827 1049 558 1067 428 992 C 298 917 89 675 89 525 C 89 375 307 149 437 74 C 567 -1 843 -28 973 47 C 1103 122 1285 375 1285 525;M 1218 525 C 1218 660 1061 884 944 951 C 827 1018 551 1048 434 981 C 317 914 92 660 92 525 C 92 390 346 186 463 119 C 580 52 797 83 914 150 C 1031 217 1218 390 1218 525"></animate>
</path><path d="M 1224 525 C 1224 663 1045 851 925 920 C 805 989 572 1017 453 948 C 334 879 129 663 129 525 C 129 387 314 137 433 68 C 552 -1 804 63 924 132 C 1044 201 1224 387 1224 525" fill="url(#lg-0.4071668219799969)" opacity="0.49">
  <animate attributeName="d" dur="var(--tiempoAnim)" repeatCount="indefinite" keyTimes="0;0.3333333333333333;0.6666666666666666;1" calcmod="spline" keySplines="0.3 0.1 0.7 0.9;0.3 0.1 0.7 0.9;0.3 0.1 0.7 0.9" begin="-8.333333333333334s" values="M 1224 525 C 1224 663 1045 851 925 920 C 805 989 572 1017 453 948 C 334 879 129 663 129 525 C 129 387 314 137 433 68 C 552 -1 804 63 924 132 C 1044 201 1224 387 1224 525;M 1112 525 C 1112 633 984 804 890 858 C 796 912 592 925 498 871 C 404 817 273 633 273 525 C 273 417 395 218 489 164 C 583 110 763 195 857 249 C 951 303 1112 417 1112 525;M 1110 525 C 1110 633 949 746 856 800 C 763 854 589 927 496 873 C 403 819 212 633 212 525 C 212 417 420 260 513 206 C 606 152 786 157 879 211 C 972 265 1110 417 1110 525;M 1224 525 C 1224 663 1045 851 925 920 C 805 989 572 1017 453 948 C 334 879 129 663 129 525 C 129 387 314 137 433 68 C 552 -1 804 63 924 132 C 1044 201 1224 387 1224 525"></animate>
</path><path d="M 1271 525 C 1271 653 1010 811 900 875 C 790 939 595 957 485 893 C 375 829 166 653 166 525 C 166 397 376 223 486 159 C 596 95 799 95 909 159 C 1019 223 1271 397 1271 525" fill="url(#lg-0.4071668219799969)" opacity="0.49">
  <animate attributeName="d" dur="var(--tiempoAnim)" repeatCount="indefinite" keyTimes="0;0.3333333333333333;0.6666666666666666;1" calcmod="spline" keySplines="0.3 0.1 0.7 0.9;0.3 0.1 0.7 0.9;0.3 0.1 0.7 0.9" begin="-8.333333333333334s" values="M 1271 525 C 1271 653 1010 811 900 875 C 790 939 595 957 485 893 C 375 829 166 653 166 525 C 166 397 376 223 486 159 C 596 95 799 95 909 159 C 1019 223 1271 397 1271 525;M 1199 525 C 1199 654 1047 872 935 937 C 823 1002 573 1000 461 935 C 349 870 189 654 189 525 C 189 396 331 150 443 85 C 555 20 781 121 893 186 C 1005 251 1199 396 1199 525;M 1324 525 C 1324 665 1024 811 903 881 C 782 951 600 974 479 904 C 358 834 97 665 97 525 C 97 385 359 218 480 148 C 601 78 790 85 911 155 C 1032 225 1324 385 1324 525;M 1271 525 C 1271 653 1010 811 900 875 C 790 939 595 957 485 893 C 375 829 166 653 166 525 C 166 397 376 223 486 159 C 596 95 799 95 909 159 C 1019 223 1271 397 1271 525"></animate>
</path><path d="M 1137 525 C 1137 641 988 796 887 854 C 786 912 610 910 509 852 C 408 794 207 641 207 525 C 207 409 412 264 513 206 C 614 148 772 163 873 221 C 974 279 1137 409 1137 525" fill="url(#lg-0.4071668219799969)" opacity="0.49">
  <animate attributeName="d" dur="var(--tiempoAnim)" repeatCount="indefinite" keyTimes="0;0.3333333333333333;0.6666666666666666;1" calcmod="spline" keySplines="0.3 0.1 0.7 0.9;0.3 0.1 0.7 0.9;0.3 0.1 0.7 0.9" begin="-8.333333333333334s" values="M 1137 525 C 1137 641 988 796 887 854 C 786 912 610 910 509 852 C 408 794 207 641 207 525 C 207 409 412 264 513 206 C 614 148 772 163 873 221 C 974 279 1137 409 1137 525;M 1281 525 C 1281 673 1117 955 989 1029 C 861 1103 591 1005 463 931 C 335 857 83 673 83 525 C 83 377 300 132 428 58 C 556 -16 803 47 931 121 C 1059 195 1281 377 1281 525;M 1209 525 C 1209 659 1046 860 930 927 C 814 994 599 963 483 896 C 367 829 179 659 179 525 C 179 391 365 217 481 150 C 597 83 842 7 958 74 C 1074 141 1209 391 1209 525;M 1137 525 C 1137 641 988 796 887 854 C 786 912 610 910 509 852 C 408 794 207 641 207 525 C 207 409 412 264 513 206 C 614 148 772 163 873 221 C 974 279 1137 409 1137 525"></animate>
</path></g>
</svg>