<svg xmlns="http://www.w3.org/2000/svg" xmlns:xlink="http://www.w3.org/1999/xlink" style="margin:auto;background:rgba(241, 242, 243, 0);display:block;z-index:1;position:relative" width="1595" height="1658" preserveAspectRatio="xMidYMid" viewBox="0 0 1595 1658">
<g transform="translate(797.5,829) scale(1,1) translate(-797.5,-829)"><linearGradient id="lg-0.2255543724015865" x1="0" x2="1" y1="0" y2="0">
  <stop stop-color="var(--first-color)" offset="0"></stop>
  <stop stop-color="var(--second-color)" offset="1"></stop>
</linearGradient><path d="M 1481 829 C 1481 1015 1149 1307 972 1365 C 795 1423 437 1321 328 1170 C 219 1019 228 646 337 495 C 446 344 753 363 930 420 C 1107 477 1481 643 1481 829" fill="url(#lg-0.2255543724015865)" opacity="0.41000000000000003">
  <animate attributeName="d" dur="var(--tiempoAnim)" repeatCount="indefinite" keyTimes="0;0.3333333333333333;0.6666666666666666;1" calcmod="spline" keySplines="0.3 0.1 0.7 0.9;0.3 0.1 0.7 0.9;0.3 0.1 0.7 0.9" begin="-2.857142857142857s" values="M 1481 829 C 1481 1015 1149 1307 972 1365 C 795 1423 437 1321 328 1170 C 219 1019 228 646 337 495 C 446 344 753 363 930 420 C 1107 477 1481 643 1481 829;M 1299 829 C 1299 974 1037 1098 899 1143 C 761 1188 498 1225 413 1108 C 328 991 349 682 434 565 C 519 448 771 441 909 486 C 1047 531 1299 684 1299 829;M 1474 829 C 1474 1029 1144 1245 953 1307 C 762 1369 393 1371 275 1209 C 157 1047 113 580 231 418 C 349 256 752 324 942 386 C 1132 448 1474 629 1474 829;M 1481 829 C 1481 1015 1149 1307 972 1365 C 795 1423 437 1321 328 1170 C 219 1019 228 646 337 495 C 446 344 753 363 930 420 C 1107 477 1481 643 1481 829"></animate>
</path><path d="M 1283 829 C 1283 979 1063 1158 920 1205 C 777 1252 454 1264 366 1142 C 278 1020 296 651 384 529 C 472 407 766 440 909 487 C 1052 534 1283 679 1283 829" fill="url(#lg-0.2255543724015865)" opacity="0.41000000000000003">
  <animate attributeName="d" dur="var(--tiempoAnim)" repeatCount="indefinite" keyTimes="0;0.3333333333333333;0.6666666666666666;1" calcmod="spline" keySplines="0.3 0.1 0.7 0.9;0.3 0.1 0.7 0.9;0.3 0.1 0.7 0.9" begin="-2.857142857142857s" values="M 1283 829 C 1283 979 1063 1158 920 1205 C 777 1252 454 1264 366 1142 C 278 1020 296 651 384 529 C 472 407 766 440 909 487 C 1052 534 1283 679 1283 829;M 1300 829 C 1300 963 1023 1089 895 1130 C 767 1171 522 1195 443 1087 C 364 979 334 657 413 549 C 492 441 784 435 912 476 C 1040 517 1300 695 1300 829;M 1367 829 C 1367 980 1054 1129 910 1176 C 766 1223 455 1265 366 1143 C 277 1021 360 699 449 576 C 538 453 784 379 928 426 C 1072 473 1367 678 1367 829;M 1283 829 C 1283 979 1063 1158 920 1205 C 777 1252 454 1264 366 1142 C 278 1020 296 651 384 529 C 472 407 766 440 909 487 C 1052 534 1283 679 1283 829"></animate>
</path><path d="M 1348 829 C 1348 972 1039 1109 903 1153 C 767 1197 489 1230 405 1114 C 321 998 292 639 376 523 C 460 407 782 413 918 457 C 1054 501 1348 686 1348 829" fill="url(#lg-0.2255543724015865)" opacity="0.41000000000000003">
  <animate attributeName="d" dur="var(--tiempoAnim)" repeatCount="indefinite" keyTimes="0;0.3333333333333333;0.6666666666666666;1" calcmod="spline" keySplines="0.3 0.1 0.7 0.9;0.3 0.1 0.7 0.9;0.3 0.1 0.7 0.9" begin="-2.857142857142857s" values="M 1348 829 C 1348 972 1039 1109 903 1153 C 767 1197 489 1230 405 1114 C 321 998 292 639 376 523 C 460 407 782 413 918 457 C 1054 501 1348 686 1348 829;M 1272 829 C 1272 970 1037 1111 903 1155 C 769 1199 496 1222 413 1108 C 330 994 292 636 375 522 C 458 408 770 456 904 500 C 1038 544 1272 688 1272 829;M 1257 829 C 1257 969 1049 1150 916 1193 C 783 1236 524 1201 442 1087 C 360 973 321 657 403 543 C 485 429 791 395 924 438 C 1057 481 1257 689 1257 829;M 1348 829 C 1348 972 1039 1109 903 1153 C 767 1197 489 1230 405 1114 C 321 998 292 639 376 523 C 460 407 782 413 918 457 C 1054 501 1348 686 1348 829"></animate>
</path><path d="M 1433 829 C 1433 1006 1112 1224 944 1279 C 776 1334 422 1320 318 1177 C 214 1034 240 643 344 500 C 448 357 758 378 926 433 C 1094 488 1433 652 1433 829" fill="url(#lg-0.2255543724015865)" opacity="0.41000000000000003">
  <animate attributeName="d" dur="var(--tiempoAnim)" repeatCount="indefinite" keyTimes="0;0.3333333333333333;0.6666666666666666;1" calcmod="spline" keySplines="0.3 0.1 0.7 0.9;0.3 0.1 0.7 0.9;0.3 0.1 0.7 0.9" begin="-2.857142857142857s" values="M 1433 829 C 1433 1006 1112 1224 944 1279 C 776 1334 422 1320 318 1177 C 214 1034 240 643 344 500 C 448 357 758 378 926 433 C 1094 488 1433 652 1433 829;M 1397 829 C 1397 985 1056 1122 908 1170 C 760 1218 492 1244 400 1118 C 308 992 337 687 428 561 C 519 435 774 398 922 446 C 1070 494 1397 673 1397 829;M 1272 829 C 1272 968 1027 1083 894 1126 C 761 1169 549 1182 467 1069 C 385 956 367 689 449 576 C 531 463 777 440 910 483 C 1043 526 1272 690 1272 829;M 1433 829 C 1433 1006 1112 1224 944 1279 C 776 1334 422 1320 318 1177 C 214 1034 240 643 344 500 C 448 357 758 378 926 433 C 1094 488 1433 652 1433 829"></animate>
</path><path d="M 1307 829 C 1307 967 1040 1128 909 1171 C 778 1214 483 1228 402 1116 C 321 1004 356 679 437 567 C 518 455 796 386 927 429 C 1058 472 1307 691 1307 829" fill="url(#lg-0.2255543724015865)" opacity="0.41000000000000003">
  <animate attributeName="d" dur="var(--tiempoAnim)" repeatCount="indefinite" keyTimes="0;0.3333333333333333;0.6666666666666666;1" calcmod="spline" keySplines="0.3 0.1 0.7 0.9;0.3 0.1 0.7 0.9;0.3 0.1 0.7 0.9" begin="-2.857142857142857s" values="M 1307 829 C 1307 967 1040 1128 909 1171 C 778 1214 483 1228 402 1116 C 321 1004 356 679 437 567 C 518 455 796 386 927 429 C 1058 472 1307 691 1307 829;M 1482 829 C 1482 1004 1108 1220 942 1274 C 776 1328 457 1292 354 1151 C 251 1010 257 652 360 511 C 463 370 756 393 922 447 C 1088 501 1482 654 1482 829;M 1517 829 C 1517 1045 1157 1234 951 1301 C 745 1368 363 1412 236 1237 C 109 1062 113 599 240 424 C 367 249 754 262 960 329 C 1166 396 1517 613 1517 829;M 1307 829 C 1307 967 1040 1128 909 1171 C 778 1214 483 1228 402 1116 C 321 1004 356 679 437 567 C 518 455 796 386 927 429 C 1058 472 1307 691 1307 829"></animate>
</path><path d="M 1306 829 C 1306 978 1075 1203 934 1249 C 793 1295 482 1241 395 1121 C 308 1001 339 679 426 559 C 513 439 763 456 904 502 C 1045 548 1306 680 1306 829" fill="url(#lg-0.2255543724015865)" opacity="0.41000000000000003">
  <animate attributeName="d" dur="var(--tiempoAnim)" repeatCount="indefinite" keyTimes="0;0.3333333333333333;0.6666666666666666;1" calcmod="spline" keySplines="0.3 0.1 0.7 0.9;0.3 0.1 0.7 0.9;0.3 0.1 0.7 0.9" begin="-2.857142857142857s" values="M 1306 829 C 1306 978 1075 1203 934 1249 C 793 1295 482 1241 395 1121 C 308 1001 339 679 426 559 C 513 439 763 456 904 502 C 1045 548 1306 680 1306 829;M 1554 829 C 1554 1022 1119 1192 935 1252 C 751 1312 354 1389 241 1233 C 128 1077 221 648 334 492 C 447 336 781 253 965 313 C 1149 373 1554 636 1554 829;M 1220 829 C 1220 963 1016 1069 889 1110 C 762 1151 537 1184 458 1076 C 379 968 362 678 441 570 C 520 462 781 448 908 489 C 1035 530 1220 695 1220 829;M 1306 829 C 1306 978 1075 1203 934 1249 C 793 1295 482 1241 395 1121 C 308 1001 339 679 426 559 C 513 439 763 456 904 502 C 1045 548 1306 680 1306 829"></animate>
</path><path d="M 1353 829 C 1353 1005 1127 1276 960 1330 C 793 1384 491 1269 388 1127 C 285 985 219 625 322 483 C 425 341 766 357 933 411 C 1100 465 1353 653 1353 829" fill="url(#lg-0.2255543724015865)" opacity="0.41000000000000003">
  <animate attributeName="d" dur="var(--tiempoAnim)" repeatCount="indefinite" keyTimes="0;0.3333333333333333;0.6666666666666666;1" calcmod="spline" keySplines="0.3 0.1 0.7 0.9;0.3 0.1 0.7 0.9;0.3 0.1 0.7 0.9" begin="-2.857142857142857s" values="M 1353 829 C 1353 1005 1127 1276 960 1330 C 793 1384 491 1269 388 1127 C 285 985 219 625 322 483 C 425 341 766 357 933 411 C 1100 465 1353 653 1353 829;M 1467 829 C 1467 1006 1127 1269 958 1324 C 789 1379 451 1300 347 1156 C 243 1012 197 611 301 468 C 405 325 764 357 933 412 C 1102 467 1467 652 1467 829;M 1407 829 C 1407 992 1072 1147 917 1197 C 762 1247 509 1239 414 1107 C 319 975 322 684 418 553 C 514 422 786 338 941 388 C 1096 438 1407 666 1407 829;M 1353 829 C 1353 1005 1127 1276 960 1330 C 793 1384 491 1269 388 1127 C 285 985 219 625 322 483 C 425 341 766 357 933 411 C 1100 465 1353 653 1353 829"></animate>
</path></g>
</svg>