<svg xmlns="http://www.w3.org/2000/svg" xmlns:xlink="http://www.w3.org/1999/xlink" style="margin:auto;background:rgba(255, 255, 255, 0);display:block;z-index:1;position:relative" width="1338" height="993" preserveAspectRatio="xMidYMid" viewBox="0 0 1338 993">
<g transform="translate(669,496.5) scale(1,1) translate(-669,-496.5)"><linearGradient id="lg-0.89617662972421" x1="0" x2="1" y1="0" y2="0">
  <stop stop-color="var(--first-color)" offset="0"></stop>
  <stop stop-color="var(--second-color)" offset="1"></stop>
</linearGradient><path d="M 1240 497 C 1240 603 1053 807 970 873 C 887 939 676 942 573 918 C 470 894 307 789 261 693 C 215 597 140 360 186 264 C 232 168 485 166 588 142 C 691 118 859 88 942 154 C 1025 220 1240 391 1240 497" fill="url(#lg-0.89617662972421)" opacity="0.41000000000000003">
  <animate attributeName="d" dur="var(--tiempoAnim)" repeatCount="indefinite" keyTimes="0;0.3333333333333333;0.6666666666666666;1" calcmod="spline" keySplines="0.3 0.1 0.7 0.9;0.3 0.1 0.7 0.9;0.3 0.1 0.7 0.9" begin="-10s" values="M 1240 497 C 1240 603 1053 807 970 873 C 887 939 676 942 573 918 C 470 894 307 789 261 693 C 215 597 140 360 186 264 C 232 168 485 166 588 142 C 691 118 859 88 942 154 C 1025 220 1240 391 1240 497;M 1196 497 C 1196 594 967 714 891 775 C 815 836 687 855 592 833 C 497 811 327 770 285 682 C 243 594 179 369 221 281 C 263 193 503 206 598 184 C 693 162 841 124 917 185 C 993 246 1196 400 1196 497;M 1299 497 C 1299 628 1075 796 973 878 C 871 960 704 932 576 903 C 448 874 144 895 87 777 C 30 659 -20 310 37 192 C 94 74 455 147 583 118 C 711 89 942 -55 1044 27 C 1146 109 1299 366 1299 497;M 1240 497 C 1240 603 1053 807 970 873 C 887 939 676 942 573 918 C 470 894 307 789 261 693 C 215 597 140 360 186 264 C 232 168 485 166 588 142 C 691 118 859 88 942 154 C 1025 220 1240 391 1240 497"></animate>
</path><path d="M 1278 497 C 1278 608 1057 805 970 874 C 883 943 687 915 579 890 C 471 865 185 853 137 753 C 89 653 88 340 136 240 C 184 140 463 91 571 66 C 679 41 909 17 996 86 C 1083 155 1278 386 1278 497" fill="url(#lg-0.89617662972421)" opacity="0.41000000000000003">
  <animate attributeName="d" dur="var(--tiempoAnim)" repeatCount="indefinite" keyTimes="0;0.3333333333333333;0.6666666666666666;1" calcmod="spline" keySplines="0.3 0.1 0.7 0.9;0.3 0.1 0.7 0.9;0.3 0.1 0.7 0.9" begin="-10s" values="M 1278 497 C 1278 608 1057 805 970 874 C 883 943 687 915 579 890 C 471 865 185 853 137 753 C 89 653 88 340 136 240 C 184 140 463 91 571 66 C 679 41 909 17 996 86 C 1083 155 1278 386 1278 497;M 1275 497 C 1275 613 1103 855 1012 927 C 921 999 677 981 564 955 C 451 929 218 842 168 738 C 118 634 103 352 153 248 C 203 144 474 162 587 136 C 700 110 910 8 1001 80 C 1092 152 1275 381 1275 497;M 1162 497 C 1162 606 1073 828 988 896 C 903 964 681 933 575 909 C 469 885 223 832 176 734 C 129 636 178 380 225 282 C 272 184 471 118 577 94 C 683 70 846 99 931 167 C 1016 235 1162 388 1162 497;M 1278 497 C 1278 608 1057 805 970 874 C 883 943 687 915 579 890 C 471 865 185 853 137 753 C 89 653 88 340 136 240 C 184 140 463 91 571 66 C 679 41 909 17 996 86 C 1083 155 1278 386 1278 497"></animate>
</path><path d="M 1248 497 C 1248 615 1062 801 970 874 C 878 947 681 975 566 949 C 451 923 217 845 166 739 C 115 633 144 374 195 268 C 246 162 450 69 565 43 C 680 17 855 75 947 148 C 1039 221 1248 379 1248 497" fill="url(#lg-0.89617662972421)" opacity="0.41000000000000003">
  <animate attributeName="d" dur="var(--tiempoAnim)" repeatCount="indefinite" keyTimes="0;0.3333333333333333;0.6666666666666666;1" calcmod="spline" keySplines="0.3 0.1 0.7 0.9;0.3 0.1 0.7 0.9;0.3 0.1 0.7 0.9" begin="-10s" values="M 1248 497 C 1248 615 1062 801 970 874 C 878 947 681 975 566 949 C 451 923 217 845 166 739 C 115 633 144 374 195 268 C 246 162 450 69 565 43 C 680 17 855 75 947 148 C 1039 221 1248 379 1248 497;M 1324 497 C 1324 625 1078 804 978 884 C 878 964 695 959 570 931 C 445 903 116 904 61 789 C 6 674 92 360 147 245 C 202 130 451 120 576 91 C 701 62 889 16 989 96 C 1089 176 1324 369 1324 497;M 1326 497 C 1326 621 1067 796 970 874 C 873 952 699 922 578 894 C 457 866 239 842 185 730 C 131 618 13 319 67 207 C 121 95 439 49 560 21 C 681 -7 885 26 982 104 C 1079 182 1326 373 1326 497;M 1248 497 C 1248 615 1062 801 970 874 C 878 947 681 975 566 949 C 451 923 217 845 166 739 C 115 633 144 374 195 268 C 246 162 450 69 565 43 C 680 17 855 75 947 148 C 1039 221 1248 379 1248 497"></animate>
</path><path d="M 1268 497 C 1268 623 1098 833 1000 911 C 902 989 709 889 586 861 C 463 833 215 855 160 742 C 105 629 27 327 81 214 C 135 101 465 169 588 141 C 711 113 866 49 964 127 C 1062 205 1268 371 1268 497" fill="url(#lg-0.89617662972421)" opacity="0.41000000000000003">
  <animate attributeName="d" dur="var(--tiempoAnim)" repeatCount="indefinite" keyTimes="0;0.3333333333333333;0.6666666666666666;1" calcmod="spline" keySplines="0.3 0.1 0.7 0.9;0.3 0.1 0.7 0.9;0.3 0.1 0.7 0.9" begin="-10s" values="M 1268 497 C 1268 623 1098 833 1000 911 C 902 989 709 889 586 861 C 463 833 215 855 160 742 C 105 629 27 327 81 214 C 135 101 465 169 588 141 C 711 113 866 49 964 127 C 1062 205 1268 371 1268 497;M 1164 497 C 1164 605 1078 835 994 903 C 910 971 687 902 582 878 C 477 854 217 834 170 737 C 123 640 121 352 168 255 C 215 158 482 161 587 137 C 692 113 894 40 979 107 C 1064 174 1164 389 1164 497;M 1237 497 C 1237 615 1031 762 939 836 C 847 910 689 941 574 915 C 459 889 198 854 147 748 C 96 642 129 367 180 261 C 231 155 456 92 571 66 C 686 40 881 42 973 116 C 1065 190 1237 379 1237 497;M 1268 497 C 1268 623 1098 833 1000 911 C 902 989 709 889 586 861 C 463 833 215 855 160 742 C 105 629 27 327 81 214 C 135 101 465 169 588 141 C 711 113 866 49 964 127 C 1062 205 1268 371 1268 497"></animate>
</path><path d="M 1192 497 C 1192 595 1028 790 951 851 C 874 912 683 879 587 857 C 491 835 326 770 283 682 C 240 594 220 389 263 301 C 306 213 489 149 585 127 C 681 105 819 151 896 212 C 973 273 1192 399 1192 497" fill="url(#lg-0.89617662972421)" opacity="0.41000000000000003">
  <animate attributeName="d" dur="var(--tiempoAnim)" repeatCount="indefinite" keyTimes="0;0.3333333333333333;0.6666666666666666;1" calcmod="spline" keySplines="0.3 0.1 0.7 0.9;0.3 0.1 0.7 0.9;0.3 0.1 0.7 0.9" begin="-10s" values="M 1192 497 C 1192 595 1028 790 951 851 C 874 912 683 879 587 857 C 491 835 326 770 283 682 C 240 594 220 389 263 301 C 306 213 489 149 585 127 C 681 105 819 151 896 212 C 973 273 1192 399 1192 497;M 1092 497 C 1092 592 1001 761 927 820 C 853 879 694 816 601 795 C 508 774 317 772 276 686 C 235 600 268 409 309 323 C 350 237 499 182 592 161 C 685 140 820 154 895 213 C 970 272 1092 402 1092 497;M 1202 497 C 1202 599 1056 817 976 881 C 896 945 687 873 588 850 C 489 827 251 811 207 719 C 163 627 185 377 229 285 C 273 193 483 139 582 116 C 681 93 851 104 931 168 C 1011 232 1202 395 1202 497;M 1192 497 C 1192 595 1028 790 951 851 C 874 912 683 879 587 857 C 491 835 326 770 283 682 C 240 594 220 389 263 301 C 306 213 489 149 585 127 C 681 105 819 151 896 212 C 973 273 1192 399 1192 497"></animate>
</path></g>
</svg>