<svg xmlns="http://www.w3.org/2000/svg" xmlns:xlink="http://www.w3.org/1999/xlink" style="margin:auto;background:rgba(241, 242, 243, 0);display:block;z-index:1;position:relative" width="1107" height="897" preserveAspectRatio="xMidYMid" viewBox="0 0 1107 897">
<g transform="translate(553.5,448.5) scale(1,1) translate(-553.5,-448.5)"><linearGradient id="lg-0.23118890192512165" x1="0" x2="1" y1="0" y2="0">
  <stop stop-color="var(--first-color)" offset="0"></stop>
  <stop stop-color="var(--second-color)" offset="1"></stop>
</linearGradient><path d="M 828 449 C 828 536 703 627 620 654 C 537 681 367 692 316 621 C 265 550 280 358 331 287 C 382 216 552 170 635 197 C 718 224 828 362 828 449" fill="url(#lg-0.23118890192512165)" opacity="0.41000000000000003">
  <animate attributeName="d" dur="var(--tiempoAnim)" repeatCount="indefinite" keyTimes="0;0.3333333333333333;0.6666666666666666;1" calcmod="spline" keySplines="0.3 0.1 0.7 0.9;0.3 0.1 0.7 0.9;0.3 0.1 0.7 0.9" begin="-2.857142857142857s" values="M 828 449 C 828 536 703 627 620 654 C 537 681 367 692 316 621 C 265 550 280 358 331 287 C 382 216 552 170 635 197 C 718 224 828 362 828 449;M 905 449 C 905 544 714 632 623 662 C 532 692 356 710 300 633 C 244 556 218 323 274 246 C 330 169 529 215 620 244 C 711 273 905 354 905 449;M 967 449 C 967 559 759 728 655 762 C 551 796 347 734 283 645 C 219 556 228 348 292 259 C 356 170 541 132 645 166 C 749 200 967 339 967 449;M 828 449 C 828 536 703 627 620 654 C 537 681 367 692 316 621 C 265 550 280 358 331 287 C 382 216 552 170 635 197 C 718 224 828 362 828 449"></animate>
</path><path d="M 900 449 C 900 554 743 689 643 722 C 543 755 334 738 272 653 C 210 568 192 316 254 231 C 316 146 544 137 644 169 C 744 201 900 344 900 449" fill="url(#lg-0.23118890192512165)" opacity="0.41000000000000003">
  <animate attributeName="d" dur="var(--tiempoAnim)" repeatCount="indefinite" keyTimes="0;0.3333333333333333;0.6666666666666666;1" calcmod="spline" keySplines="0.3 0.1 0.7 0.9;0.3 0.1 0.7 0.9;0.3 0.1 0.7 0.9" begin="-2.857142857142857s" values="M 900 449 C 900 554 743 689 643 722 C 543 755 334 738 272 653 C 210 568 192 316 254 231 C 316 146 544 137 644 169 C 744 201 900 344 900 449;M 1033 449 C 1033 588 779 695 647 738 C 515 781 265 830 183 718 C 101 606 126 309 208 197 C 290 85 528 78 660 121 C 792 164 1033 310 1033 449;M 1071 449 C 1071 584 779 709 651 750 C 523 791 253 833 174 724 C 95 615 95 282 174 173 C 253 64 549 26 677 67 C 805 108 1071 314 1071 449;M 900 449 C 900 554 743 689 643 722 C 543 755 334 738 272 653 C 210 568 192 316 254 231 C 316 146 544 137 644 169 C 744 201 900 344 900 449"></animate>
</path><path d="M 1018 449 C 1018 595 819 794 680 839 C 541 884 228 866 142 748 C 56 630 77 283 163 165 C 249 47 518 86 657 131 C 796 176 1018 303 1018 449" fill="url(#lg-0.23118890192512165)" opacity="0.41000000000000003">
  <animate attributeName="d" dur="var(--tiempoAnim)" repeatCount="indefinite" keyTimes="0;0.3333333333333333;0.6666666666666666;1" calcmod="spline" keySplines="0.3 0.1 0.7 0.9;0.3 0.1 0.7 0.9;0.3 0.1 0.7 0.9" begin="-2.857142857142857s" values="M 1018 449 C 1018 595 819 794 680 839 C 541 884 228 866 142 748 C 56 630 77 283 163 165 C 249 47 518 86 657 131 C 796 176 1018 303 1018 449;M 950 449 C 950 550 745 711 649 742 C 553 773 329 736 270 654 C 211 572 204 320 264 238 C 324 156 530 194 626 225 C 722 256 950 348 950 449;M 1025 449 C 1025 587 779 696 648 739 C 517 782 241 846 160 734 C 79 622 142 319 223 208 C 304 97 542 37 673 80 C 804 123 1025 311 1025 449;M 1018 449 C 1018 595 819 794 680 839 C 541 884 228 866 142 748 C 56 630 77 283 163 165 C 249 47 518 86 657 131 C 796 176 1018 303 1018 449"></animate>
</path><path d="M 1026 449 C 1026 586 796 752 666 794 C 536 836 250 839 169 728 C 88 617 87 279 168 168 C 249 57 530 78 660 120 C 790 162 1026 312 1026 449" fill="url(#lg-0.23118890192512165)" opacity="0.41000000000000003">
  <animate attributeName="d" dur="var(--tiempoAnim)" repeatCount="indefinite" keyTimes="0;0.3333333333333333;0.6666666666666666;1" calcmod="spline" keySplines="0.3 0.1 0.7 0.9;0.3 0.1 0.7 0.9;0.3 0.1 0.7 0.9" begin="-2.857142857142857s" values="M 1026 449 C 1026 586 796 752 666 794 C 536 836 250 839 169 728 C 88 617 87 279 168 168 C 249 57 530 78 660 120 C 790 162 1026 312 1026 449;M 1000 449 C 1000 562 752 695 645 730 C 538 765 348 737 282 646 C 216 555 197 329 263 238 C 329 147 527 165 634 200 C 741 235 1000 336 1000 449;M 902 449 C 902 542 712 634 623 663 C 534 692 389 684 334 608 C 279 532 232 331 287 255 C 342 179 528 224 617 253 C 706 282 902 356 902 449;M 1026 449 C 1026 586 796 752 666 794 C 536 836 250 839 169 728 C 88 617 87 279 168 168 C 249 57 530 78 660 120 C 790 162 1026 312 1026 449"></animate>
</path><path d="M 945 449 C 945 555 746 698 645 731 C 544 764 323 747 261 661 C 199 575 231 345 293 259 C 355 173 539 151 640 184 C 741 217 945 343 945 449" fill="url(#lg-0.23118890192512165)" opacity="0.41000000000000003">
  <animate attributeName="d" dur="var(--tiempoAnim)" repeatCount="indefinite" keyTimes="0;0.3333333333333333;0.6666666666666666;1" calcmod="spline" keySplines="0.3 0.1 0.7 0.9;0.3 0.1 0.7 0.9;0.3 0.1 0.7 0.9" begin="-2.857142857142857s" values="M 945 449 C 945 555 746 698 645 731 C 544 764 323 747 261 661 C 199 575 231 345 293 259 C 355 173 539 151 640 184 C 741 217 945 343 945 449;M 870 449 C 870 541 720 663 632 691 C 544 719 344 714 290 640 C 236 566 262 350 316 276 C 370 202 542 184 630 212 C 718 240 870 357 870 449;M 964 449 C 964 569 749 662 635 699 C 521 736 302 780 231 683 C 160 586 149 303 219 206 C 289 109 531 131 645 168 C 759 205 964 329 964 449;M 945 449 C 945 555 746 698 645 731 C 544 764 323 747 261 661 C 199 575 231 345 293 259 C 355 173 539 151 640 184 C 741 217 945 343 945 449"></animate>
</path><path d="M 1049 449 C 1049 574 775 726 656 765 C 537 804 303 785 229 684 C 155 583 120 288 194 187 C 268 86 524 135 643 174 C 762 213 1049 324 1049 449" fill="url(#lg-0.23118890192512165)" opacity="0.41000000000000003">
  <animate attributeName="d" dur="var(--tiempoAnim)" repeatCount="indefinite" keyTimes="0;0.3333333333333333;0.6666666666666666;1" calcmod="spline" keySplines="0.3 0.1 0.7 0.9;0.3 0.1 0.7 0.9;0.3 0.1 0.7 0.9" begin="-2.857142857142857s" values="M 1049 449 C 1049 574 775 726 656 765 C 537 804 303 785 229 684 C 155 583 120 288 194 187 C 268 86 524 135 643 174 C 762 213 1049 324 1049 449;M 1046 449 C 1046 586 782 710 652 752 C 522 794 286 813 205 702 C 124 591 156 329 236 218 C 316 107 541 44 671 86 C 801 128 1046 312 1046 449;M 1026 449 C 1026 583 800 776 673 817 C 546 858 269 821 190 713 C 111 605 90 277 168 169 C 246 61 520 121 647 162 C 774 203 1026 315 1026 449;M 1049 449 C 1049 574 775 726 656 765 C 537 804 303 785 229 684 C 155 583 120 288 194 187 C 268 86 524 135 643 174 C 762 213 1049 324 1049 449"></animate>
</path><path d="M 1010 449 C 1010 576 792 770 671 809 C 550 848 292 796 217 693 C 142 590 136 303 211 200 C 286 97 535 93 656 132 C 777 171 1010 322 1010 449" fill="url(#lg-0.23118890192512165)" opacity="0.41000000000000003">
  <animate attributeName="d" dur="var(--tiempoAnim)" repeatCount="indefinite" keyTimes="0;0.3333333333333333;0.6666666666666666;1" calcmod="spline" keySplines="0.3 0.1 0.7 0.9;0.3 0.1 0.7 0.9;0.3 0.1 0.7 0.9" begin="-2.857142857142857s" values="M 1010 449 C 1010 576 792 770 671 809 C 550 848 292 796 217 693 C 142 590 136 303 211 200 C 286 97 535 93 656 132 C 777 171 1010 322 1010 449;M 936 449 C 936 551 723 641 626 672 C 529 703 349 722 289 640 C 229 558 202 319 262 237 C 322 155 528 197 625 228 C 722 259 936 347 936 449;M 1043 449 C 1043 597 815 774 674 820 C 533 866 291 823 204 703 C 117 583 27 249 114 129 C 201 9 516 83 657 129 C 798 175 1043 301 1043 449;M 1010 449 C 1010 576 792 770 671 809 C 550 848 292 796 217 693 C 142 590 136 303 211 200 C 286 97 535 93 656 132 C 777 171 1010 322 1010 449"></animate>
</path></g>
</svg>