<svg xmlns="http://www.w3.org/2000/svg" xmlns:xlink="http://www.w3.org/1999/xlink" style="margin:auto;background:rgba(241, 242, 243, 0);display:block;z-index:1;position:relative" width="332" height="255" preserveAspectRatio="xMidYMid" viewBox="0 0 332 255">
<g transform="translate(166,127.5) scale(1,1) translate(-166,-127.5)"><linearGradient id="lg-0.5994624562379582" x1="0" x2="1" y1="0" y2="0">
  <stop stop-color="var(--first-color)" offset="0"></stop>
  <stop stop-color="var(--second-color)" offset="1"></stop>
</linearGradient><path d="M 311 128 C 311 164 226 194 191 205 C 156 216 80 234 59 205 C 38 176 53 90 74 61 C 95 32 158 35 193 46 C 228 57 311 92 311 128" fill="url(#lg-0.5994624562379582)" opacity="0.41000000000000003">
  <animate attributeName="d" dur="33.333333333333336s" repeatCount="indefinite" keyTimes="0;0.3333333333333333;0.6666666666666666;1" calcmod="spline" keySplines="0.3 0.1 0.7 0.9;0.3 0.1 0.7 0.9;0.3 0.1 0.7 0.9" begin="-9.523809523809524s" values="M 311 128 C 311 164 226 194 191 205 C 156 216 80 234 59 205 C 38 176 53 90 74 61 C 95 32 158 35 193 46 C 228 57 311 92 311 128;M 276 128 C 276 157 220 199 192 208 C 164 217 114 201 97 177 C 80 153 73 97 90 73 C 107 49 158 57 186 66 C 214 75 276 99 276 128;M 271 128 C 271 155 210 176 184 184 C 158 192 103 207 87 185 C 71 163 85 102 101 80 C 117 58 162 56 187 64 C 212 72 271 101 271 128;M 311 128 C 311 164 226 194 191 205 C 156 216 80 234 59 205 C 38 176 53 90 74 61 C 95 32 158 35 193 46 C 228 57 311 92 311 128"></animate>
</path><path d="M 269 128 C 269 154 215 192 190 200 C 165 208 104 204 89 183 C 74 162 71 91 87 70 C 103 49 164 49 189 57 C 214 65 269 102 269 128" fill="url(#lg-0.5994624562379582)" opacity="0.41000000000000003">
  <animate attributeName="d" dur="33.333333333333336s" repeatCount="indefinite" keyTimes="0;0.3333333333333333;0.6666666666666666;1" calcmod="spline" keySplines="0.3 0.1 0.7 0.9;0.3 0.1 0.7 0.9;0.3 0.1 0.7 0.9" begin="-9.523809523809524s" values="M 269 128 C 269 154 215 192 190 200 C 165 208 104 204 89 183 C 74 162 71 91 87 70 C 103 49 164 49 189 57 C 214 65 269 102 269 128;M 267 128 C 267 156 213 179 186 188 C 159 197 104 208 87 185 C 70 162 67 91 84 68 C 101 45 164 42 191 51 C 218 60 267 100 267 128;M 254 128 C 254 151 207 179 185 186 C 163 193 115 194 101 175 C 87 156 89 100 103 81 C 117 62 160 71 182 78 C 204 85 254 105 254 128;M 269 128 C 269 154 215 192 190 200 C 165 208 104 204 89 183 C 74 162 71 91 87 70 C 103 49 164 49 189 57 C 214 65 269 102 269 128"></animate>
</path><path d="M 266 128 C 266 160 219 189 189 199 C 159 209 93 220 74 194 C 55 168 57 88 76 62 C 95 36 163 33 193 43 C 223 53 266 96 266 128" fill="url(#lg-0.5994624562379582)" opacity="0.41000000000000003">
  <animate attributeName="d" dur="33.333333333333336s" repeatCount="indefinite" keyTimes="0;0.3333333333333333;0.6666666666666666;1" calcmod="spline" keySplines="0.3 0.1 0.7 0.9;0.3 0.1 0.7 0.9;0.3 0.1 0.7 0.9" begin="-9.523809523809524s" values="M 266 128 C 266 160 219 189 189 199 C 159 209 93 220 74 194 C 55 168 57 88 76 62 C 95 36 163 33 193 43 C 223 53 266 96 266 128;M 301 128 C 301 163 225 196 192 207 C 159 218 87 228 66 200 C 45 172 44 82 64 54 C 84 26 165 18 198 29 C 231 40 301 93 301 128;M 284 128 C 284 162 222 189 190 200 C 158 211 108 211 88 184 C 68 157 61 93 81 66 C 101 39 157 46 189 56 C 221 66 284 94 284 128;M 266 128 C 266 160 219 189 189 199 C 159 209 93 220 74 194 C 55 168 57 88 76 62 C 95 36 163 33 193 43 C 223 53 266 96 266 128"></animate>
</path><path d="M 269 128 C 269 161 227 211 196 221 C 165 231 109 209 90 183 C 71 157 58 89 77 63 C 96 37 166 22 197 32 C 228 42 269 95 269 128" fill="url(#lg-0.5994624562379582)" opacity="0.41000000000000003">
  <animate attributeName="d" dur="33.333333333333336s" repeatCount="indefinite" keyTimes="0;0.3333333333333333;0.6666666666666666;1" calcmod="spline" keySplines="0.3 0.1 0.7 0.9;0.3 0.1 0.7 0.9;0.3 0.1 0.7 0.9" begin="-9.523809523809524s" values="M 269 128 C 269 161 227 211 196 221 C 165 231 109 209 90 183 C 71 157 58 89 77 63 C 96 37 166 22 197 32 C 228 42 269 95 269 128;M 300 128 C 300 166 239 227 202 239 C 165 251 82 236 59 205 C 36 174 46 88 69 57 C 92 26 157 29 194 41 C 231 53 300 90 300 128;M 280 128 C 280 159 222 200 193 210 C 164 220 104 211 86 186 C 68 161 55 85 73 60 C 91 35 166 28 195 38 C 224 48 280 97 280 128;M 269 128 C 269 161 227 211 196 221 C 165 231 109 209 90 183 C 71 157 58 89 77 63 C 96 37 166 22 197 32 C 228 42 269 95 269 128"></animate>
</path><path d="M 276 128 C 276 158 219 193 190 202 C 161 211 97 214 79 190 C 61 166 75 99 93 75 C 111 51 165 33 194 42 C 223 51 276 98 276 128" fill="url(#lg-0.5994624562379582)" opacity="0.41000000000000003">
  <animate attributeName="d" dur="33.333333333333336s" repeatCount="indefinite" keyTimes="0;0.3333333333333333;0.6666666666666666;1" calcmod="spline" keySplines="0.3 0.1 0.7 0.9;0.3 0.1 0.7 0.9;0.3 0.1 0.7 0.9" begin="-9.523809523809524s" values="M 276 128 C 276 158 219 193 190 202 C 161 211 97 214 79 190 C 61 166 75 99 93 75 C 111 51 165 33 194 42 C 223 51 276 98 276 128;M 308 128 C 308 166 238 227 202 239 C 166 251 98 225 75 194 C 52 163 41 84 64 53 C 87 22 161 21 197 33 C 233 45 308 90 308 128;M 263 128 C 263 159 223 205 194 214 C 165 223 98 215 80 190 C 62 165 76 100 94 75 C 112 50 164 34 193 43 C 222 52 263 97 263 128;M 276 128 C 276 158 219 193 190 202 C 161 211 97 214 79 190 C 61 166 75 99 93 75 C 111 51 165 33 194 42 C 223 51 276 98 276 128"></animate>
</path><path d="M 291 128 C 291 166 229 196 192 208 C 155 220 92 229 69 198 C 46 167 39 83 62 52 C 85 21 162 15 199 27 C 236 39 291 90 291 128" fill="url(#lg-0.5994624562379582)" opacity="0.41000000000000003">
  <animate attributeName="d" dur="33.333333333333336s" repeatCount="indefinite" keyTimes="0;0.3333333333333333;0.6666666666666666;1" calcmod="spline" keySplines="0.3 0.1 0.7 0.9;0.3 0.1 0.7 0.9;0.3 0.1 0.7 0.9" begin="-9.523809523809524s" values="M 291 128 C 291 166 229 196 192 208 C 155 220 92 229 69 198 C 46 167 39 83 62 52 C 85 21 162 15 199 27 C 236 39 291 90 291 128;M 240 128 C 240 151 206 176 184 183 C 162 190 112 194 99 176 C 86 158 98 106 111 88 C 124 70 163 61 185 68 C 207 75 240 105 240 128;M 277 128 C 277 161 224 198 192 208 C 160 218 90 224 70 197 C 50 170 48 83 68 56 C 88 29 159 41 191 51 C 223 61 277 95 277 128;M 291 128 C 291 166 229 196 192 208 C 155 220 92 229 69 198 C 46 167 39 83 62 52 C 85 21 162 15 199 27 C 236 39 291 90 291 128"></animate>
</path><path d="M 251 128 C 251 154 212 183 187 191 C 162 199 119 195 103 174 C 87 153 78 96 93 75 C 108 54 165 45 190 53 C 215 61 251 102 251 128" fill="url(#lg-0.5994624562379582)" opacity="0.41000000000000003">
  <animate attributeName="d" dur="33.333333333333336s" repeatCount="indefinite" keyTimes="0;0.3333333333333333;0.6666666666666666;1" calcmod="spline" keySplines="0.3 0.1 0.7 0.9;0.3 0.1 0.7 0.9;0.3 0.1 0.7 0.9" begin="-9.523809523809524s" values="M 251 128 C 251 154 212 183 187 191 C 162 199 119 195 103 174 C 87 153 78 96 93 75 C 108 54 165 45 190 53 C 215 61 251 102 251 128;M 267 128 C 267 157 217 189 189 198 C 161 207 103 209 86 186 C 69 163 69 92 86 69 C 103 46 159 53 187 62 C 215 71 267 99 267 128;M 270 128 C 270 157 218 196 191 205 C 164 214 107 205 90 182 C 73 159 65 89 82 66 C 99 43 164 40 191 49 C 218 58 270 99 270 128;M 251 128 C 251 154 212 183 187 191 C 162 199 119 195 103 174 C 87 153 78 96 93 75 C 108 54 165 45 190 53 C 215 61 251 102 251 128"></animate>
</path></g>
</svg>